<svg width="60" height="60" fill="none" xmlns="http://www.w3.org/2000/svg"><path opacity=".7" d="M52.725 13.92l-.294.42c.176-1.2-.06-2.88-.354-3.84-.413 1.56-1.18 2.94-2.241 4.26l-.06-.78c-1.238 1.98-2.771 3.6-4.481 4.38 0-.3-.06-.66-.177-.9-2.241 3-7.667 2.28-7.077 8.34 1.238-.18 1.828 1.08.766 2.28-.471 0-.943-.18-1.356-.42l.236-.36-.944-.48c.236-.06.472-.18.708-.3-1.416-.72-.944-2.1-2.595-2.82-.295-.3-.53-.72-.708-1.14-.059-.3-.118-.66-.177-1.02 0-.72 0-1.14.178-1.44l.117.18c.413-.96.944-1.68 1.652-2.1 1.946.06 3.066-.06 3.42-1.26-.118.06-.177.06-.236.06-.059-.12-.118-.18-.177-.24.472-.18 1.18.12 1.357.12-.06-.6-.295-.78-.413-1.02l.649-.48c1.65.54 3.066-.72 4.069-.18l.354-1.26c-1.475-.72-2.36.24-3.598.24.354-.78.413-1.5.118-2.22l-1.297-.42c-1.593.48-1.534 1.98-.944 3-.354.36-.707.54-.944.66l-.412.06s-.06-.54-.767-.72v-.36c.885-.72.944-1.44.767-1.86-.177-.42-.649-.66-1.062-.54l-.59.18-.059-.12c.06-.06.06-.12.06-.18 0-.12-.06-.24-.118-.3h.058l-.058-.24.235.06v-.84l-.235.06.058-.24h-.825l.059.24-.236-.06v.84l.236-.06-.236.3h.118a.463.463 0 00-.118.3c0 .06 0 .18.06.24l-.06.12-.59-.18a.856.856 0 00-1.061.54c-.177.42-.118 1.08.766 1.86v.48h-.648c-.708-.42-1.298-1.14-1.475-2.04.472-.06.826-.24 1.12-.54v-1.26c1.888-1.44 2.419-3.36.767-4.2-.943-.48-2.123-.06-2.712.42-.118-.18-.295-.36-.472-.42 0-.18-.06-.36-.236-.54h.118l-.118-.42.413.12V4.56l-.413.12.118-.42H29.43l.118.42-.412-.12v1.32l.412-.12-.118.42h.118a.766.766 0 00-.235.54v.06c-.118.06-.295.24-.413.36-.59-.48-1.77-.9-2.654-.42-1.651.84-1.12 2.76.766 4.2v1.26c.295.3.708.48 1.121.54-.177.84-.767 1.56-1.474 2.04h-.649v-.54c.884-.72.944-1.44.767-1.86-.177-.42-.65-.66-1.062-.54l-.59.18-.059-.12c.06-.06.06-.12.06-.18 0-.12-.06-.24-.119-.3h.06l-.06-.24.236.06v-.84l-.236.06.06-.24h-.826l.059.24-.236-.06v.84l.236-.06v.24h.118a.462.462 0 00-.118.3c0 .06 0 .18.059.24l-.06.12-.589-.18a.856.856 0 00-1.062.54c-.177.42-.117 1.08.767 1.86v.36c-.708.18-.767.78-.767.78h-.294a5.327 5.327 0 01-1.121-.84c.59-1.08.59-2.4-.944-2.88l-1.356.3c-.295.72-.236 1.38.118 2.16-1.238 0-2.123-.96-3.597-.24l.353 1.26c1.003-.54 2.418.72 4.07.18l.648.48c-.236.3-.471.6-.53 1.14.412-.24.825-.3 1.474-.18-.236 0-.295.12-.295.18.059.06.118.06.118.06-.059 0-.236-.06-.413-.06.354 1.14 1.534 1.26 3.48 1.2.707.36 1.18 1.08 1.651 2.1l.118-.18c.118.36.177.72.177 1.44 0 .42-.06.72-.177 1.02-.236.42-.472.84-.708 1.14-1.651.72-1.18 2.1-2.595 2.76.236.18.413.3.708.3l-.944.48.236.36c-.412.24-.825.42-1.356.42-1.12-1.2-.53-2.4.767-2.28.59-6.06-4.836-5.28-7.077-8.34-.06.24-.118.6-.177.9-1.71-.78-3.244-2.4-4.482-4.38l-.06.78c-1.002-1.32-1.768-2.76-2.24-4.26-.295.96-.531 2.64-.354 3.84l-.295-.42c-.59 2.28-.53 3.78.708 5.76.177 1.26.707 2.52 1.297 3.48-.354-.06-.59-.12-.943-.12.648 1.26 1.415 2.46 2.123 3.24l-1.003.3c.885 1.38 1.887 2.28 3.067 3.06-.531.12-.767.3-1.18.6.767.84 1.416 1.26 2.477 1.56-.825.3-1.18.66-1.415 1.32 1.061.36 2.24.6 3.42.54-.707.42-1.356.9-1.71 1.56l-.236-.12c-.118-.06-.177-.06-.295-.06-.236 0-.53.18-.59.42 0 .06-.059.12-.059.12v.12c-.058.06-.176.12-.235.18l-.295-.12c-.118-.06-.236-.06-.354-.06-.295 0-.59.18-.708.48-.177.42 0 .84.354 1.08l.236.12h.059v.3l-.059.12c0 .06-.059.06-.059.12a.846.846 0 000 .54c.059.18.177.3.354.42l.472.24-.118-.06.236.12.825.42.06.06c-.59.72-1.298 1.14-2.124 1.14h-.413l-.177-.12h-.059a3.703 3.703 0 01-1.061-.36l-.413-.24.118.48c.236 1.14 1.238 2.28 2.772 3.3 1.474.9 3.067 1.44 4.423 1.44.707 0 1.297-.18 1.71-.48l.413-.3-.472-.12a3.52 3.52 0 01-.944-.48l-.235-.06-.177-.18c-.826-.78-.826-1.92-.59-2.76h.059l.826.42.236.12.058-.12 1.71.84c-.058 2.7-.884 4.38-2.417 6.12h-.06c-.235.06-.412.3-.471.54l-.177.18h-.059a.617.617 0 00-.53-.3c-.06 0-.119 0-.178.06l-.294.12a.607.607 0 00-.354.3c-.06.12-.06.24-.06.42-.058 0-.176.06-.235.06-.118-.24-.354-.42-.59-.42-.059 0-.118 0-.236.06l-.177.06c-.354.12-.53.42-.413.78-.766.24-1.533.54-2.24.72.117 1.86.707 3.42 1.887 4.86 1.828-.9 3.597-1.8 5.307-2.64.06.06.177.12.295.12.06 0 .118 0 .177-.06l.236-.06c.295-.12.649-.42.826-.72a261.41 261.41 0 016.782-3.18c.059.72.118 1.38.353 1.86.472-.18.885-.3 1.298-.66 0 .24.118.48.177.78l-.885.96.59.6.885-.84c.118.66.825 1.62 1.238 1.86.295-.24 1.061-1.26 1.238-1.86l.885.84.59-.6-.885-.96c.118-.24.177-.48.177-.78.413.3.826.48 1.298.66.176-.48.294-1.08.353-1.86l.236.12.118-.12 4.246 2.1.354.18.118.18.06.06h.058l.59.3.177.06c.177.3.649 1.08 1.474 1.02.177 0 .295-.06.413-.12l.59.3.236.12.059-.12 2.182 1.02-.06.12.237.12.825.42.236.12.06-.12.648.3c-.177 0-.06 0 0 0 .236 0 .53-.18.59-.42 0-.06.059-.12.059-.12v-.12c.059-.06.177-.06.235-.18h.06l.353.18c.118.06.236.06.354.06.295 0 .59-.18.708-.48.177-.42 0-.84-.354-1.08l-.295-.18v-.3l.06-.06c.058-.06.058-.06.058-.12a.846.846 0 000-.54c-.059-.18-.236-.18-.354-.24l-.708-.36.06-.12-.236-.12-.826-.42-.236-.12.06-.12c.117-.3-.119-.66-.296-.72l-.295-.12c-.294-.12-.649 0-.766.3l-.06.12-.235-.12.059-.18c.118-.3 0-.66-.354-.84l-.295-.12c-.177-.06-.413 0-.53.06-1.77-1.92-2.714-3.54-2.832-5.64 2.772-1.08 5.898-2.22 9.2-3.3a15.68 15.68 0 00-1.887-4.86l-.825.48-.708-1.38c-.354.24-.708.42-1.12.66a5.242 5.242 0 00-1.298-.96c1.18.06 2.418-.18 3.42-.54-.294-.6-.648-1.02-1.415-1.32 1.062-.3 1.77-.72 2.477-1.56-.413-.3-.649-.48-1.18-.6 1.18-.78 2.124-1.68 3.067-3.06l-1.002-.3c.707-.78 1.474-1.98 2.123-3.24-.354 0-.59 0-.944.12.649-.9 1.12-2.22 1.298-3.48 1.238-2.1 1.297-3.54.707-5.82zM35.564 40.2c-.06.06-.177.06-.236.12l.059-.42.177.3zm-5.839-27.24h.826c.354 1.38 1.18 2.34 2.359 3.12 0 0-.767 1.14-2.123 1.62.118.18.177.18.354.3-.472.42-1.003 1.44-1.003 1.44v.06-.06s-.53-1.02-1.003-1.44c.118-.12.237-.12.354-.3-1.356-.48-2.123-1.62-2.123-1.62 1.18-.78 2.064-1.74 2.36-3.12zm-4.777 27.3l-.236-.06.178-.3.058.36zm-9.023-4.44c.472-.06.944-.12 1.357-.24-.236.18-.472.48-.59.72l-.826-.36.06-.12zm4.541 11.64c.826-.96 1.593-1.98 2.064-3.9l2.182 1.02.354.18.118.18.06.06h.058l.295.18-2.064 1.02c-1.003.36-2.123.84-3.067 1.26zm19.403.06l-2.536-1.2-.354-.18-.118-.18-.059-.06h-.059l-1.238-.6c.707-.3 1.533-.6 2.359-.96.472 1.2 1.12 2.28 2.005 3.18zm3.42-11.64l-.354-.36c.177.06.413.12.65.18-.119.06-.178.12-.296.18z" fill="#231F20"/><path d="M22.708 15.6c-.53-.06-1.12-.06-1.474.06-.472.12-.826.36-1.003.96 1.474-.42 1.592.42 2.949.72-.413.18-1.475.18-2.064-.18.412.66.943.84 2.89.78-.65-.54-.296-1.74-1.298-2.34z" fill="#FCD015"/><path d="M21.41 16.98c.354.06.295.3.885.3-.118-.12-.649-.54-.885-.3zm16.041-1.38c.531-.06 1.12-.06 1.475.06.471.12.825.36 1.002.96-1.474-.42-1.592.42-2.948.72.412.18 1.474.18 2.064-.18-.413.66-.944.84-2.89.78.648-.54.354-1.74 1.297-2.34z" fill="#FCD015"/><path d="M38.808 16.98c-.354.06-.295.3-.885.3.118-.12.649-.54.885-.3z" fill="#FCD015"/><path d="M30.08 43.5l1.65 3.42-1.415.6-1.592-3.48 1.356-.54zm-1.534 7.86l-.708.72.236.24.649-.66c0-.12-.118-.24-.177-.3zm3.244 0a.464.464 0 01-.236.24l.649.66.235-.24-.648-.66z" fill="#221F1F"/><path d="M23.475 14.22v.36c.884-.06 1.592.06 2.418.12v-.48a8.163 8.163 0 00-2.418 0zm.117-1.98l-.235-.18c-.177 0-.354.12-.472.3-.531.66.177 1.38.53 1.68h.118c.177 0 .413-.06.59-.06 0-.72-.118-1.38-.53-1.74zm2.418-.18l-.236.18c-.412.36-.471 1.02-.53 1.74.177 0 .413.06.59.06h.117c.354-.3 1.062-1.02.531-1.68a.485.485 0 00-.472-.3zm-1.297-.12c.13 0 .236-.108.236-.24a.238.238 0 00-.236-.24.238.238 0 00-.236.24c0 .132.106.24.236.24z" fill="#FFC112"/><path d="M24.3 13.92h.826c0-.78.117-1.5.59-1.86l-.59.18-.118-.18c-.06.06-.177.06-.236.06-.118 0-.177-.06-.236-.06l-.118.18-.59-.18c.354.42.472 1.14.472 1.86zm.177-2.7h.413l-.06-.24.296.06v-.42l-.295.06.059-.24h-.413l.118.24-.295-.06v.42l.295-.06-.118.24zm11.853 2.94h-.058a6.054 6.054 0 00-1.474 0h-.06c-.117 0-.235 0-.353.06v.48c.766 0 1.474-.18 2.359-.12v-.36c-.177-.06-.295-.06-.413-.06zm1.003-1.86c-.118-.18-.295-.24-.472-.3l-.235.24c-.413.36-.472 1.02-.531 1.74.177 0 .412.06.59.06h.117c.354-.3 1.062-1.02.531-1.74zm-2.889-.06l-.236-.18c-.177 0-.354.06-.53.3-.532.66.176 1.38.53 1.68h.118c.177 0 .413-.06.59-.06 0-.72-.06-1.38-.472-1.74zm1.061-.3c.13 0 .236-.108.236-.24a.238.238 0 00-.236-.24.238.238 0 00-.236.24c0 .132.105.24.236.24z" fill="#FFC112"/><path d="M35.151 12.3l-.59-.18c.472.36.59 1.08.59 1.86h.826c0-.78.118-1.5.59-1.86l-.59.18-.118-.18c-.059.06-.177.06-.236.06-.118 0-.177-.06-.236-.06l-.236.18zm.178-1.08h.413l-.118-.24.294.06v-.42l-.294.06.117-.24h-.412l.059.24-.295-.06v.42l.294-.06-.058.24zm-8.611-3.06v.36l.294.12v-.3l-.294-.18zm3.362 1.98c-1.593 0-2.89.42-2.89.9v.78c.471-.48 1.71-.66 2.89-.66 1.179 0 2.358.24 2.889.66v-.78c0-.48-1.297-.9-2.89-.9zm1.474-1.62c.236-1.02 1.061-1.56 1.887-1.74-.885-.18-1.887.24-2.241.84-.177.3-.295.66-.413.96.236-.12.53-.12.767-.06zm-2.949 0c.295-.06.53-.06.767.06-.119-.36-.236-.72-.413-1.02-.354-.54-1.357-1.02-2.241-.84.825.24 1.65.78 1.887 1.8z" fill="#FFC112"/><path d="M27.308 12.06c.177.18.471.36.884.48.06-.3.06-.6.118-.96-.472.12-.825.3-1.002.48zm2.948-.72h-.353c0 .48-.06.96-.177 1.38h.707c-.058-.42-.118-.84-.177-1.38zm1.652.24c0 .36.059.66.118.96.412-.12.707-.3.884-.48-.177-.18-.53-.36-1.002-.48zM30.08 7.26c.293 0 .53-.241.53-.54a.535.535 0 00-.53-.54.535.535 0 00-.531.54c0 .299.238.54.53.54zm-.354-1.32h.648l-.177-.54.531.18v-.66l-.53.18.176-.54h-.648l.235.54-.59-.18v.66l.59-.18-.235.54zm3.479 2.7l.295-.12v-.36l-.236.18-.059.3z" fill="#FFC112"/><path d="M34.443 7.44c-.118-.24-.294-.36-.53-.48-.885.06-1.887.54-2.123 1.74v.12l-.118-.06c-.354-.12-.65-.06-.944.12-.059.24-.118.42-.118.54-.059.24-.295.36-.472.36s-.413-.18-.472-.36c0-.06-.058-.24-.117-.48-.236-.18-.59-.18-.944-.12l-.118.06v-.12c-.236-1.2-1.18-1.68-2.123-1.74-.177.12-.354.3-.53.48-.826 1.26.766 2.76 1.356 3.24.412-.54 1.71-.78 2.948-.78 1.298 0 2.595.3 2.95.78.53-.54 2.122-2.04 1.355-3.3zM26.6 8.7l-.118-.06V7.8l.354.18.295.12.118.06V9l-.354-.18-.295-.12zm.53 1.44c-.117 0-.176-.06-.176-.18s.059-.18.177-.18.177.06.177.18c0 .06-.06.18-.177.18zm.885-.36c-.118 0-.177-.06-.177-.18s.06-.18.177-.18c.118 0 .177.06.177.18 0 .06-.118.18-.177.18zm.885-.24c-.118 0-.177-.06-.177-.18s.059-.18.177-.18.177.06.177.18-.06.18-.177.18zm2.418 0c-.118 0-.177-.06-.177-.18s.059-.18.177-.18.177.06.177.18-.118.18-.177.18zm.884.24c-.118 0-.176-.06-.176-.18s.058-.18.176-.18.177.06.177.18c0 .06-.059.18-.177.18zm.885.36c-.118 0-.177-.06-.177-.18s.059-.18.177-.18.177.06.177.18c0 .06-.059.18-.177.18zM32.97 9v-.84l.118-.06.295-.12.354-.18v.84l-.118.06-.295.12-.354.18z" fill="#FFC112"/><path d="M30.08 9.54a.297.297 0 00.295-.3c0-.166-.133-.3-.295-.3a.297.297 0 00-.295.3c0 .166.132.3.295.3zm-.354-.72c.118-.12.236-.12.354-.12s.295.06.354.12c.058-.36.235-.9.53-1.38 0 0 0-.06.06-.06 0-.18-.119-.3-.296-.42-.118.24-.354.48-.707.48a.766.766 0 01-.708-.48.405.405 0 00-.236.36c0 .06.059.06.059.12.354.54.53 1.02.59 1.38z" fill="#FFC112"/><path d="M46.416 34.44c-5.839 3.18-10.97 6.12-16.218 8.76l.118.18v.06c5.307-2.34 10.91-4.92 16.69-7.86-.119-.36-.354-.84-.59-1.14zm-17.87 9.72l-.059-.12c-1.18.6-2.418 1.14-3.597 1.68 1.18-.48 2.418-.96 3.656-1.56zm19.284-8.7c-5.543 2.82-11.44 5.58-17.397 8.22l1.357 2.88c5.897-2.52 11.912-4.92 17.692-6.9-.236-1.5-.826-2.88-1.651-4.2zM18.167 48.6l.295.9c.059.18-.118.36-.118.6.059.84-.472 1.44-.472 1.44l-.295.24-.118-.36-.767-2.28c0 .06-.059.06-.118.06l.472 1.38c.177.6-.118 1.44-.177 1.44l-.118.24-.236-.06s-.59-.42-.884-1.2c-.06-.12-.177-.12-.236-.24l-.295-.96c-.059 0-.118.06-.236.06l.708 2.16.118.36h-.354c-.059 0-.708 0-1.239-.78-.058-.12-.353-.06-.412-.24l-.295-.96c-.708.24-1.357.48-2.064.72.236 1.62.766 3.06 1.71 4.2 1.651-.84 3.362-1.68 5.13-2.52 0-.06.06-.18.119-.3l.707-1.2s-.118-.36-.059-.78c.531.12.944.36 1.12.72.06.18.06.48-.058.72 3.243-1.56 6.605-3.06 9.966-4.5l-1.297-3.06c-3.48 1.5-7.018 2.94-10.497 4.2z" fill="#E0E0E0"/><path d="M17.46 44.04s-.06 0 0 0c-.59-.06-1.121-.12-1.652-.24l.059-.24c.413.12.825.18 1.297.24-.825-.78-.943-1.92-.649-3.06l-2.3-1.14c-.707 1.02-1.65 1.44-2.771 1.26 1.002 1.08 2.123 1.92 3.48 2.4l-.06.24c-1.474-.54-2.713-1.44-3.774-2.7-.354-.06-.708-.24-1.062-.42.59 2.82 6.428 5.64 8.493 4.14a4.39 4.39 0 01-1.062-.48z" fill="#E2E2E2"/><path d="M12.8 36l-.295-.12c-.295-.12-.59 0-.708.24-.118.3 0 .6.236.72l.236.12c.118-.24.295-.36.53-.36a1.04 1.04 0 010-.6zm35.915 17.4l-.295-.18c-.117.18-.294.36-.53.36.118.18.118.42 0 .6l.353.18c.295.12.59 0 .708-.24s0-.6-.236-.72z" fill="#A5A5A5"/><path d="M46.443 50.832l-1.597 3.413.852.412 1.597-3.412-.852-.413zm-27.98-13.607l-1.598 3.413.852.413 1.598-3.413-.852-.413zm-3.703-1.747l-1.598 3.413.852.413 1.598-3.413-.852-.413zm6.71 3.222l3.833 6.06.59.3c.176-.06.294-.12.471-.24l-3.42-5.4-1.475-.72zm6.9 3.36l.884 1.38c.236-.12.53-.24.766-.36l-.177-.3-1.474-.72zm3.537 4.68l.118.24-.235.12-.177.06.53.9 1.416.72-1.357-2.16a.446.446 0 01-.294.12zm3.303-1.38l3.834 6.06.59.3c-.177-.48 0-.84.058-.9l-3.007-4.74-1.475-.72zm8.08 3.9l-.236-.06-1.062 2.46-.118-.12-.472 1.02.826.42.472-1.02c-.06-.24-.236-.84 0-1.32l.59-1.38z" fill="#939393"/><path d="M18.167 40.62l-.236.42 6.84 3.3-.53-.78-6.074-2.94zm4.953 1.14l-4.482-2.22-.412.84 5.78 2.82-.886-1.44zm-1.179-1.86l-2.83-1.38-.355.84 4.129 1.98-.944-1.44zm-.649-1.08l-.059-.06-1.828-.9-.177.42 2.477 1.2-.413-.66zm-8.964-1.08l-.06.06c-.117.24 0 .48.237.6l.472.24.177-.42-.59-.3c-.06-.06-.118-.12-.236-.18zm2.162 1.094l-.203.434 2.396 1.16.203-.433-2.396-1.16zm-1.985-1.754c-.118.24 0 .48.236.6l.59.3.354-.84-.59-.3c-.236-.06-.53 0-.59.24zm2.461.734l-.38.813 2.396 1.16.38-.812-2.396-1.16zm-1.93-1.754c-.118.24 0 .48.236.6l.53.24.354-.84-.53-.18c-.236-.12-.472-.06-.59.18zm2.411.655l-.38.812 2.396 1.161.38-.812-2.396-1.161zm-1.998-1.135a.52.52 0 01.294.06l.531.24.177-.42-.472-.24c-.236-.12-.471 0-.59.24.06.06.06.06.06.12zm2.297.495l-.203.433 2.396 1.16.203-.432-2.396-1.161zM33.382 48l.413.66.059.06L38.513 51l-.472-.78L33.38 48zm9.336 4.5l-.203.433 2.183 1.058.203-.433-2.183-1.058zm-14.113-9.66l-.471-.66-.06-.12-4.6-2.22.472.78 4.66 2.22zm19.521 8.94l-.708-.36-.177.42.826.42c.118.06.177.12.236.18l.059-.06c.117-.24 0-.48-.236-.6zm-1.18 2.76l-.767-.36-.236.42.65.3c.235.12.47 0 .589-.24 0-.06 0-.06.059-.12-.118.06-.236.06-.295 0zm.472-1.02l-.767-.36-.354.84.767.36c.236.12.472 0 .59-.24.059-.24 0-.48-.236-.6zm.531-1.02l-.826-.42-.354.84.826.42c.236.12.471 0 .59-.24.117-.24 0-.48-.236-.6zm-21.644-8.22l.59.3c.354-.18.707-.3 1.061-.48l-2.536-1.26.885 1.44zm-2.123-3.3l.885 1.44 3.125 1.5c.295-.12.531-.24.826-.42l-.177-.3-4.659-2.22zm6.959 6.42l.472.24-.236-.36-.236.12zm3.892-1.92c-.177.06-.354.12-.59.18l1.003.48-.413-.66zm.649 1.08l-1.533-.72c-.354.18-.708.3-1.12.48l3.538 1.74-.885-1.5zm1.18 1.86l-4.129-1.98c-.117.06-.176.06-.294.12l.648 1.08 4.6 2.22-.825-1.44zm4.599.66l.236-.42-4.482-2.16.472.78 3.774 1.8zm-.059.3l-3.42-1.74.885 1.44 2.535 1.2c0-.18.06-.36.06-.48-.06-.18-.178-.24-.06-.42zm-2.3.12l.708 1.14c.413-.36 1.003-.3 1.003-.3l-.177.6.177.36.766.36.177-.3a1.94 1.94 0 01-.294-.78l-2.36-1.08zm2.183 2.76l.177-.36-.472-.24.295.6zm3.538-2.1l-.236-.12-.236.48.295.12.177-.48zm-.295.66l-.236-.12-.118.24c-.059.12-.177 0-.413.48l.354.18.413-.78zm.944 1.44l.354-.72c-.06.06-.236 0-.295.12-.118.18-.354.42-.413.42l.354.18zm-1.238.12h-.354l.118-.36.059-.12-.354-.24c-.295.36-.767.66-.767.66l2.123 1.02.354-.84-.53-.24c-.355.06-.59.12-.65.12z" fill="#DBDBDB"/><path d="M30.198 48.48c-.944 0-1.71.78-1.71 1.74s.766 1.74 1.71 1.74c.943 0 1.71-.78 1.71-1.74s-.767-1.74-1.71-1.74zm.412 1.08c.118 0 .118-.12.06-.18.058-.12.117 0 .117.06 0 0 .118 0 .118.06s-.059.06-.059.18c0 0-.118-.06-.059 0 0 0-.059 0-.059-.06s.06-.06.06-.12-.119-.06-.119-.06c.06.06.06.18-.059.12 0 .06 0 0 0 0zm-.176.6h-.413c.118-.12 0-.42-.236-.42-.06 0-.06.06-.06.06v-.06c0-.12.296-.06.414-.12 0 .06-.06.12-.06.12.06.06.119.18.178.36 0-.18.058-.3.177-.36-.06 0-.119-.06-.06-.12.119.06.413 0 .413.12v.06s0-.06-.059-.06c-.294 0-.471.3-.294.42zm.176-.3h-.117l.059-.06s.058 0 .058.06zm-.353.72s.058-.06.058 0-.058.06-.058.06l-.118-.36h.059s.059-.06.117 0v.06-.06.12c.06 0 .06 0 .06.06 0-.06-.06-.06-.06-.06-.058.12-.058.12-.058.18zm-.177-.12s0 .06 0 0c0 0-.06 0 0 0l-.06-.06s.06 0 .06.06c0-.06.059-.06.059-.06-.06 0-.118 0-.118-.06l.059-.06v-.06l.177.48h-.177s-.06 0-.06-.06v-.06s.06-.06.06-.12zm-.177-.6h-.118c0-.06 0-.06.059-.06 0 0 .059 0 .059.06zm.59-.54v.12-.12zm-.295-.18l.059.06-.06.06-.058-.06.059-.06zm-.354.18v.12-.12zm0 .12h.118c.059 0 .059 0 .059.06.059 0 .118-.06.118-.12l-.06-.06c-.058-.06 0-.12.06-.12l.059.12.059-.12c.058 0 .117.06.058.12l-.058.06c0 .06.058.12.117.12 0-.06 0-.06.06-.06l.058.06.06-.06c.058 0 .058 0 .058.06l-.058.06h-.118c-.119 0-.177-.06-.177-.12h-.118c0 .06-.06.12-.177.12h-.118s0-.06-.06-.06c-.058 0 0-.06.06-.06zm-.295 0c.059-.06.118-.18.118-.06-.06.06-.06.18.059.18-.118 0-.118-.06-.118-.12 0 0-.118 0-.118.06s.059.06.059.12c0 0 0 .06-.059.06 0-.06-.06-.06-.06 0 .06-.12-.058-.12-.058-.18.059-.06.177 0 .177-.06zm-.413.6c.06 0 .118 0 .06-.06-.06-.06-.119-.18-.06-.24 0 0 .177.06.118 0-.059-.12-.059-.24 0-.3 0 .06.236.36.472.54 0 0-.06.06-.06.12s.06.12.119.12h.118v.18c0-.06-.118-.12-.177-.12 0 .06-.06.12-.06.18-.058.06-.117.06-.176 0 0 0 .059-.12 0-.06-.06.06-.118 0-.177-.06.06 0 .06-.06 0-.06s-.177 0-.177-.12c0 0 .118-.06.06-.06 0 .12-.06.06-.06-.06zm1.651.96c-.059 0-.117 0-.117-.06-.06-.06-.119-.06-.236-.06.058-.06-.06-.12-.119-.06-.058 0-.058.06-.058.12.117 0 .294.12.294.18s0 .06-.058.06c0-.12-.06-.12-.06 0 0 .06-.058.06-.058.12 0-.12-.06-.12-.06 0 0 .06-.058.06-.058.06l-.06-.06c0-.12-.058-.12-.058 0-.06 0-.06-.06-.06-.12 0-.12-.058-.12-.058 0-.06 0-.06-.06-.06-.06.06-.06.178-.18.296-.18 0-.06-.06-.12-.06-.12-.058-.06-.117 0-.117.06-.06 0-.177 0-.177.06l.059.06-.06-.06h-.058c-.06 0-.06-.06-.06-.06v-.06l-.235-.18h-.059s-.118 0-.118-.06h.059s-.059-.06 0-.06h.118v-.06c.059 0 .059.12.059.12s.059 0 0 .06l.236.24h.059c.059 0 .177 0 .177-.06-.118-.18 0-.3.059-.3v.12c0 .06.059.06.059.06h.059c.058 0 .117.06.117.06s.06-.06.119-.06h.059c.058 0 .058-.06.058-.06v-.12c.118 0 .236.12.06.3l.117.06c0-.06 0-.06.06-.06l.058.06.06-.06c.058 0 .058.06.058.12-.118 0-.177.06-.236.06zm-.059-.3h.118-.118zm.531-.66c0 .06-.059.18-.118.18-.118 0 0 .06.06.06 0 .06-.06.12-.178.12-.059 0-.059.06 0 .06-.059.06-.118.06-.177.06s0 .06 0 .06c-.059.06-.118.06-.177 0s-.059-.12-.059-.18c-.058 0-.117 0-.176.12v-.18h.117c.06 0 .119-.06.119-.12s0-.06-.06-.12c.236-.12.413-.48.472-.54.06.06.06.18 0 .3-.059.06.118 0 .118 0 .06.06 0 .18-.059.24-.059-.06.06-.06.118-.06z" fill="#D0D2D3"/><path d="M19.995 11.88c-.472.12-.65.18-.944.3-.53 1.32.472 2.82 1.651 3.54.236-.12.708-.36 1.239-.3-1.357-.84-2.477-2.04-1.946-3.54zm20.228 0c.472.12.649.18.944.3.471 1.32-.472 2.82-1.652 3.54-.236-.12-.707-.36-1.238-.3 1.415-.84 2.477-2.04 1.946-3.54zm-21.172 2.58c-1.002 0-2.359-1.02-3.42-.36l.236.84c1.12-.48 2.123.72 3.774.3-.236-.3-.413-.54-.59-.78z" fill="#1FC150"/><path d="M20.349 13.74c.117.24.353.48.59.66.59-.78.412-2.34-.708-2.52v.06c-.118.24-.118.48-.177.66.354.3.413.72.295 1.14zm20.818.72c-.177.24-.354.54-.59.72 1.651.42 2.654-.78 3.775-.3l.236-.84c-1.062-.6-2.419.42-3.421.42zm-1.297-.72c-.119-.36-.06-.84.294-1.14 0-.18-.06-.42-.177-.66v-.06c-1.12.18-1.238 1.74-.708 2.52.236-.24.472-.42.59-.66zM27.13 15.9c1.534-.84 2.478-2.28 2.537-4.56-.413 0-.826.06-1.18.12 0 1.5-.472 2.52-1.356 3.18.236-.06.413-.12.59-.18l.59-.3-.296.6c-.235.6-.53.96-.884 1.14zm5.898 0c-.295-.18-.649-.54-.884-1.08l-.295-.6.59.3c.176.06.353.12.59.18-.885-.66-1.357-1.68-1.357-3.18a6.519 6.519 0 00-1.18-.12c.118 2.22 1.062 3.72 2.536 4.5zm1.475 10.98l-.236-.18v-.66h-.59l-.177-.3c-.649-1.26-1.887-2.04-3.243-2.04h-.295c-1.357 0-2.654.78-3.244 2.04l-.177.3h-.53v.66l-.236.18a6.546 6.546 0 000 10.44l.235.18v.66h.531l.177.3c.649 1.26 1.887 2.04 3.244 2.04h.295c1.356 0 2.653-.78 3.243-2.04l.177-.3h.59v-.66l.236-.18a6.546 6.546 0 002.594-5.22c0-2.04-.943-3.9-2.594-5.22zM32.439 37.8H27.72v-1.02h.353v-.54h.236v-.48h.413v-3.24h-.59v-1.68h.59v-.3h-.236v-.42h-.236v-.9h.236v-.42h.295v-.3c-.413-.42-.826-1.2-.413-1.74s1.239-.18 1.239-.18v-.3h-.06l.06-.12-.118.06v-.96l.118.06-.06-.12h.944l-.058.12.117-.06v.96l-.117-.06.058.12h-.058v.3s.884-.36 1.238.18c.413.6 0 1.32-.354 1.74v.3h.295v.42h.295v.9h-.236v.42h-.236v.3h.59v1.68h-.59v3.24h.413v.48h.236v.54h.354v1.02z" fill="#1FC150"/><path d="M28.959 28.2h.59c0-.54-.118-1.2-.413-1.5l-.177-.18c-.177 0-.295.06-.413.24-.354.54.118 1.2.413 1.44zm2.477.72h-2.713v.24h2.713v-.24zm.177.42h-3.126v.42h3.126v-.42zm-.413 1.08h-2.182v.42H31.2v-.42zm-.059-2.04h-2.123v.36h2.123v-.36zm0-.18c.295-.3.767-.9.413-1.38-.118-.18-.236-.24-.413-.24l-.177.18c-.295.24-.413.96-.413 1.5h.59v-.06zm-1.238-2.28h.353l-.059-.24.177.06v-.3l-.177.06.06-.24h-.354l.058.24-.235-.06v.3l.235-.06-.058.24zm.177.6c.13 0 .235-.107.235-.24a.238.238 0 00-.235-.24.238.238 0 00-.236.24c0 .133.105.24.236.24z" fill="#FFD400"/><path d="M29.726 28.2h.649c0-.6.117-1.32.471-1.62l-.471.18-.06-.18c-.058.06-.117.06-.235.06-.06 0-.177 0-.236-.06l-.06.18-.471-.18c.354.3.413 1.02.413 1.62zm1.71 1.8h-2.713v.24h2.713V30zm.118 6h-3.008v.3h3.008V36zm.294.42H28.31v.36h3.538v-.36zm.355.54h-4.247v.54h4.247v-.54zM31.2 35.82V32.4h-2.182v3.36H31.2v.06zm-.53-3.06h.176v2.58h-.177v-2.58zm-.65 0h.178v2.58h-.178v-2.58zm-.648 0h.177v2.58h-.177v-2.58zm.058-1.08h.06v-.12l-.06.12z" fill="#FFD400"/><path d="M28.37 31.02v1.2h3.36v-1.2h-3.36zm.648.9c-.059 0-.118 0-.177-.06v-.12h.059l.059.06h.059c.059 0 .118 0 .118-.06s0-.06-.118-.06h-.059c.059 0 .059 0 .059-.06s-.059-.06-.059-.06h-.06v.06h-.058v-.12c.059 0 .118-.06.177-.06.118 0 .177.06.177.12s0 .12-.059.12c.059 0 .059.06.059.12s-.118.12-.177.12zm.767-.06h-.236v-.06h.059l-.06-.06h-.176v.06h.059v.06h-.177v-.06h.059l.177-.42h.059l.236.48zm.53.06h-.177l-.177-.24v.12h.06v.06h-.236v-.06h.058v-.36h-.058v-.06h.235v.06h-.059v.18l.118-.18v-.06h.177v.06h-.058l-.119.12.177.24.06.12c0-.06 0-.06 0 0zm.236 0c-.177 0-.235-.12-.235-.24 0-.18.058-.24.235-.24s.236.12.236.24-.118.24-.236.24zm.767 0h-.236v-.06h.059v-.18h-.177v.12h.059v.06h-.236v-.06h.06v-.36h-.06v-.06h.236v.06h-.059v.12h.177v-.12h-.059v-.06h.236v.06h-.059v.36l.059.12c0-.06 0-.06 0 0z" fill="#FFD400"/><path d="M30.551 31.44c-.059 0-.118.06-.118.18s.06.18.118.18c.06 0 .118-.12.118-.18-.059-.06-.059-.18-.118-.18z" fill="#FFD400"/><path d="M43.349 49.02c.059 0 .059 0 0 0-.06-.18-.118-.24-.236-.36 0 .06.059.18 0 .24l.236.12zm-16.513 0c0 .54.059 1.08.177 1.62.413-.18.826-.36 1.18-.66.058-.6.412-1.14.943-1.44.06-.18.118-.42.177-.6l-2.477 1.08zm3.184-1.44l-.412.18c-.06.18-.118.42-.177.6.235-.06.471-.12.707-.12s.472.06.708.12l-.177-.72-.53.24-.119-.3zm1.18.9c.531.3.885.84.944 1.44.354.3.766.54 1.18.66.117-.6.235-1.14.176-1.62l-2.536-1.26c.06.3.118.54.236.78zm-1.887 3.54c.177.42.472 1.02.826 1.32.353-.3.707-.9.884-1.32-.295.3-1.356.3-1.71 0zM19.11 50.76l.236 1.14-.295-.42-.59 1.02c-.176.24-.058.42.178.3l.236-.06c.235-.06.59-.36.707-.66l.118-.18c.53-.9-.59-1.14-.59-1.14zm-4.6.42l.531-.06-.472-1.44c-.059-.24-.295-.36-.53-.3l-.177.06c-.236.06-.354.3-.295.54l.295.96c.059.12.354.06.412.24.413.78 1.062.78 1.062.78l-.177-.6-.649-.18zm3.716-1.74l-.236-.78c-.06-.24-.295-.36-.531-.3l-.177.06c-.236.06-.354.3-.295.54l.413 1.32.59-.54-.472.84.059.12.177.6s.53-.72.413-1.32c-.118-.18.118-.3.059-.54zm-1.946-.3c-.06-.18-.295-.3-.472-.24l-.295.12c-.177.06-.295.3-.236.48l.354 1.08.825.42h-.53c.118.54.413.78.766 1.02 0 0 .295-.72.118-1.26l-.53-1.62zm24.768-1.08l.708.36a.732.732 0 01.826-.3l.177.06h.059c-1.298-1.56-2.123-3.06-2.3-4.98l-2.36.96c.119.36.296.72.473 1.08l.648-.78.177.18-.708.84.354.54.531-.66.177.18-.59.72c.118.18.236.36.413.48l.53-.6.178.18-.53.66c.294.42.707.78 1.237 1.08zm-23.412.06c.177 0 .354.12.472.24l1.65-.66c.296-.18.532-.42.768-.66l-.59-.72.177-.18.59.72c.117-.18.235-.3.412-.48l-.766-.78.177-.18.59.78.353-.54-.767-.96.177-.18.708.84c.354-.72.59-1.38.649-1.98l-2.418-1.14c0 2.28-.767 4.14-2.182 5.88zM9.438 16.14v-.66l.413.54c.354.48.708.9 1.062 1.26a6.093 6.093 0 01-.472-1.92C9.379 13.8 8.495 12.3 8.2 11.16c-.649 3.12.177 5.22 1.533 6.9a6.54 6.54 0 01-.295-1.92zM15.1 27.12c-.06-.06-.06-.12-.118-.18l-.354-.54.59.18c.413.12.884.18 1.415.18-.943-.24-1.887-.72-2.536-1.8-1.651-.78-3.302-2.04-4.364-3.54-.413-.3-.825-.6-1.18-1.02.708 3.12 3.716 5.82 6.547 6.72z" fill="#FFE000"/><path d="M15.984 24.6a4.421 4.421 0 01-2.123-1.86c-1.238-.66-2.654-1.74-3.538-3.3-.53-.42-1.003-.9-1.533-1.5.118 3.06 2.594 5.4 5.13 6.66-.059-.06-.059-.12-.118-.24l-.236-.54.531.24c.649.3 1.298.42 1.887.54zm-1.946-4.2c-.059-.18-.059-.36-.118-.54l-.059-.54.413.3c.472.36.944.6 1.415.84-.412-.36-.766-.96-.825-1.8-2.064-1.02-3.008-2.28-4.305-3.84.177 2.76 1.71 4.32 3.48 5.58zm4.364 11.22c.236-.36.531-.66.885-.84-.53.06-1.061.06-1.592.06-1.71 0-3.244-.36-4.541-1.02-.413.12-.767.24-1.12.48 1.179 1.32 3.597 1.86 6.368 1.32z" fill="#FFE000"/><path d="M20.23 32.22h-.471c-.413 0-.826-.06-1.298-.12l-.354-.06.118-.18c-.648.12-1.297.18-1.946.18-.59 0-1.12-.06-1.651-.12-.826.24-1.415.54-1.651 1.08 2.653.78 4.894.36 7.253-.78zm-.353-1.8h-.059c-.707 0-1.592-.12-2.654-.36l-.353-.06.177-.3c.059-.12.176-.24.235-.36-2.594-.12-4.717-1.08-6.369-2.88-.295.06-.53.18-.707.18 2.24 3.6 5.897 4.32 9.73 3.78z" fill="#FFE000"/><path d="M17.46 29.1c.117-.12.235-.24.353-.3-1.062-.24-1.887-.72-2.418-1.38-1.18-.3-2.477-.96-3.597-1.92-.826-.66-1.475-1.38-2.065-2.16-.294-.06-.59-.12-.766-.12 1.769 3.66 4.482 5.76 8.492 5.88z" fill="#FFE000"/><path d="M16.338 20.58c2.36 1.08 4.6 1.62 4.895 4.2-1.002-3.36-3.951-2.82-7.077-4.98.118 1.26 1.003 2.1 2.36 2.64 1.71.6 3.42 1.14 4.069 2.88-1.829-2.7-4.66-1.92-6.9-3.66.294 1.08 1.297 2.64 3.361 2.94 1.474.36 2.241.6 3.008 1.74-1.592-1.68-3.951-1.2-6.075-2.1 1.298 3.06 4.364 2.1 6.134 3.36-1.534-.72-3.657-.36-4.954-.78.649 1.02 1.71 1.56 2.89 1.8.648-.42 1.356-.42 2.123-.48.295 0 .648-.06.943-.06-.884-.96-.707-2.64.826-2.58.177-5.52-4.836-5.16-6.782-7.56-.177 1.5.53 2.28 1.18 2.64zm8.964-4.74c.59.24 1.829.36 2.536-1.14-.53.3-1.238.3-1.828.24-.825-.06-1.651-.24-2.536-.18-.236 0-.648.24-.707.54 1.533-.3 1.946.3 2.535.54zm3.48 3.42c0 .48 0 .96-.236 1.32l-.294.48-.118-.54-.177-.54c-.118.36-.236.72-.472 1.02l-.354.54-.059-.66c0-.12 0-.18-.059-.3-.059.24-.177.48-.354.72l-.059.12c-.059.42-.118.84-.177 1.08.531-.12 1.18-.84 1.416-1.44.118.36.354.84.59 1.02.412-.48.53-1.08.648-1.8.236.36.53.48 1.062.54.53-.06.825-.24 1.061-.54.06.72.236 1.32.649 1.8.177-.18.472-.66.59-1.02.236.54.884 1.32 1.415 1.44-.059-.24-.118-.66-.177-1.08l-.059-.06a2.037 2.037 0 01-.354-.72c0 .06 0 .18-.059.3l-.117.6-.354-.54c-.236-.3-.354-.66-.472-1.02l-.177.54-.118.54-.295-.48c-.236-.36-.236-.84-.236-1.32-.295.3-.649.54-.944.72-.058.3-.235.6-.412.84-.177-.24-.295-.6-.413-.84-.236-.18-.59-.42-.885-.72z" fill="#FFE000"/><path d="M27.012 16.02c-1.002.54-1.828.12-2.3-.24-.59-.42-1.179-.42-1.769-.3 1.12.72.708 2.04 1.475 2.4.354.24 1.18.78 1.533 1.74.177-.3.354-1.38-.59-2.58.236.12.531.48.531.48.59.36 1.062.78 1.357 1.26.117-.72-.236-1.38-.826-2.1.944 1.14 2.005 1.2 2.713.96-.826-.06-1.71-.9-2.123-1.62zm-3.538-.36c.177 0 .53-.06 1.062.24-.177.18-.59.48-1.062-.24z" fill="#FFE000"/><path d="M27.308 17.82c.118.3.177.66.118 1.08l-.118.66-.354-.54c-.236-.36-.53-.66-.885-.9.236.72.177 1.26.06 1.62.176.48.294 1.02.294 1.5.354-.54.472-1.08.472-1.68.177.42.295.84.354 1.32a3.6 3.6 0 00.59-1.68c.235.42.412.84.471 1.26.295-.42.177-1.2.118-1.86.413.48 1.062 1.08 1.475 1.26-.236-.66-.708-1.26-1.18-1.74-.059-.06-.884.06-1.415-.3zm-1.888 6.06c-1.474.78-1.415 2.28-2.182 2.58.177.06.295.12.472.12.177-.18.295-.42.413-.66.472-.72 1.002-1.62 2.418-1.98 0-.06-.06-.12-.06-.18-.235.06-.412.12-.589.12h-.472zm-8.905-1.14c-1.18-.48-1.946-1.14-2.3-1.98-1.18-.72-2.182-1.62-2.948-2.76-.59-.54-1.062-1.14-1.593-1.8 0 3.06 1.947 5.04 4.01 6.18-.058-.18-.176-.42-.235-.6l-.177-.72.53.42c.885.66 1.77.96 2.713 1.26z" fill="#FFE000"/><path d="M8.554 18v-.72l.471.54c.413.54.826.9 1.239 1.26l-.708-.9a8.7 8.7 0 01-1.592-3.12l-.354-.72c-.649 3.18.472 4.74 1.77 6.3A5.779 5.779 0 018.553 18zM19.64 36.6c-.294.18-.589.3-.943.42l.767.36c0-.18.118-.48.177-.78zm1.358 1.74l.235.12.177-.12.413.18v-1.08c-.236.3-.53.66-.825.9zm2.063.78l.295.12.177.3.472.24a7.175 7.175 0 01-.177-1.62 6.04 6.04 0 01-.767.96zm-8.374-3.96l.826.42c1.828-.06 3.302-.84 4.777-1.8v-.06c0-.54.353-1.2.648-1.62-1.533.84-2.89 1.32-4.246 1.5-.944.48-1.71.96-2.005 1.56zm35.679-19.14l.413-.54v.66c0 .72-.118 1.32-.295 1.92 1.357-1.68 2.182-3.78 1.534-6.9-.295 1.14-1.18 2.64-2.241 4.2-.06.72-.236 1.32-.472 1.92l1.061-1.26zm-4.304 9c-.649 1.08-1.593 1.5-2.536 1.8.53-.06 1.061-.06 1.415-.18l.59-.18-.354.54c-.059.06-.059.12-.118.18 2.831-.9 5.839-3.6 6.487-6.66-.412.36-.825.72-1.18 1.02-1.002 1.5-2.653 2.7-4.304 3.48z" fill="#FFE000"/><path d="M46.297 24.66C48.833 23.34 51.31 21 51.428 18c-.472.6-1.002 1.08-1.533 1.5-.885 1.56-2.36 2.58-3.539 3.3-.412.78-1.12 1.44-2.123 1.86.65-.12 1.239-.24 1.888-.48l.53-.24-.236.54c-.059 0-.059.12-.118.18zm-1.827-4.2c.47-.24.943-.48 1.415-.84l.412-.3-.059.54c0 .18-.059.36-.118.54 1.829-1.2 3.303-2.82 3.42-5.52-1.237 1.56-2.181 2.82-4.304 3.84 0 .78-.354 1.38-.767 1.74zm-1.947 10.38c-.472 0-1.003 0-1.592-.06.295.18.59.48.884.84 2.772.54 5.19.06 6.37-1.26-.354-.24-.708-.42-1.121-.48-1.297.6-2.83.96-4.541.96z" fill="#FFE000"/><path d="M45.59 31.92c-.531.12-1.062.12-1.652.12-.648 0-1.297-.06-1.946-.18l.118.18-.354.06c-.471.12-.884.12-1.297.12h-.472c2.3 1.14 4.6 1.56 7.195.78-.177-.54-.767-.84-1.592-1.08zm-2.595-2.58c.059.12.177.24.236.36l.177.3-.354.06c-1.062.24-1.946.36-2.654.36h-.059c3.774.54 7.49-.18 9.73-3.72-.176-.06-.47-.12-.707-.18-1.71 1.74-3.833 2.7-6.369 2.82z" fill="#FFE000"/><path d="M48.48 25.56c-1.121.9-2.419 1.56-3.598 1.92-.59.66-1.415 1.14-2.418 1.38.118.12.236.18.354.3 4.01-.18 6.723-2.28 8.551-5.82-.177 0-.472.06-.767.12-.648.72-1.297 1.44-2.123 2.1z" fill="#FFE000"/><path d="M39.043 28.08c.354.06.65.06.944.06.767.06 1.474.06 2.123.48 1.18-.24 2.241-.78 2.89-1.8-1.298.42-3.362.06-4.954.78 1.77-1.26 4.836-.3 6.074-3.24-2.123.9-4.482.42-6.074 2.1.767-1.14 1.533-1.38 3.008-1.74 2.123-.36 3.066-1.86 3.361-2.94-2.24 1.74-5.072.96-6.9 3.66.708-1.8 2.36-2.34 4.07-2.88 1.356-.54 2.24-1.38 2.358-2.64-3.125 2.16-6.074 1.62-7.077 4.98.295-2.58 2.595-3.18 4.895-4.2.649-.42 1.298-1.2 1.18-2.64-1.946 2.34-6.96 2.04-6.782 7.56 1.651-.18 1.828 1.5.884 2.46zm-4.128-12.24c.59-.3 1.003-.84 2.536-.54-.059-.3-.413-.54-.708-.54-.884-.06-1.71.12-2.535.18-.59.06-1.298.06-1.829-.24.708 1.5 1.947 1.38 2.536 1.14zM31.73 18.6c-.058.66-.176 1.44.119 1.86.118-.42.294-.9.471-1.26.06.6.236 1.14.59 1.68.059-.48.177-.9.354-1.32 0 .6.118 1.2.472 1.68 0-.54.059-1.02.295-1.5-.118-.36-.177-.9.059-1.62-.354.24-.649.6-.885.9l-.354.54-.118-.66c-.059-.36 0-.72.118-1.08-.53.3-1.356.24-1.474.24a6 6 0 00-1.18 1.74c.531-.18 1.12-.72 1.534-1.2zm3.067 5.28l-.235.06h-.177c-.177 0-.413-.06-.59-.12 0 .06-.06.12-.06.18 1.416.3 1.947 1.2 2.419 1.98.118.24.295.48.413.66.176 0 .294-.06.471-.12-.825-.36-.766-1.86-2.24-2.64z" fill="#FFE000"/><path d="M46.533 22.38c2.064-1.2 4.01-3.18 4.01-6.18-.53.72-1.061 1.26-1.592 1.8-.708 1.2-1.77 2.1-2.89 2.82-.353.84-1.12 1.44-2.24 1.92h-.06c.885-.24 1.828-.54 2.654-1.2l.53-.42-.176.72c-.059.12-.177.3-.236.54z" fill="#FFE000"/><path d="M49.954 19.08c.413-.36.826-.78 1.238-1.26l.472-.54V18c-.059.96-.295 1.92-.766 2.76 1.297-1.62 2.417-3.12 1.769-6.3l-.354.72c-.295 1.14-.826 2.16-1.592 3.12l-.767.78zM45.236 34.8c-.354-.42-1.003-.78-1.71-1.2-1.357-.18-2.713-.66-4.247-1.5.354.42.649 1.08.649 1.62v.06c1.298.84 2.595 1.5 4.128 1.68a7.52 7.52 0 011.18-.66zm-3.951 2.16l-.708-.36c.06.24.06.48.118.66.236-.06.413-.18.59-.3zm-2.182 1.26l-.708-.72c.059.42.059.78 0 1.08l.708-.36zm-2.949 1.56c.354-.18.708-.42 1.12-.6-.294-.36-.59-.66-.825-1.02-.06.66-.118 1.2-.295 1.62zm6.782-3.72c-.177-.24-.354-.48-.59-.72-.944-.3-1.77-.84-2.654-1.38h-.354c-.53 0-1.12-.18-1.592-.48 0 .12-.059.18-.059.3 1.12 1.32 2.3 2.46 3.892 3.06.472-.3.944-.54 1.357-.78zm-2.477 1.38c0-.3-.059-.6-.177-.96-1.002-.6-1.887-1.44-2.654-2.4l-.354 1.08c.472 1.14 1.121 2.1 2.065 2.94.353-.24.766-.42 1.12-.66zm-2.359-.3c-.413-.54-.708-1.14-.944-1.74-.295.6-.648 1.14-1.12 1.62.354.72.825 1.38 1.415 2.04l.708-.36c.059-.42 0-.96-.06-1.56zm-1.946.66c-.118-.18-.236-.36-.295-.54-.236.24-.471.48-.766.66V39l.707.9c.295-.48.413-1.2.354-2.1zm-1.946 1.26c-.177.24-.295.54-.531.72.177.3.413.66.648.96.177-.12.354-.18.531-.3.118-.3.236-.6.295-1.02-.118-.12-.236-.3-.295-.42h-.648v.06zm-.708.9c-.354.36-.767.72-1.238.96l.707.54c.295-.18.65-.3.944-.48 0-.18-.059-.3-.118-.48-.118-.18-.177-.36-.295-.54zm-.885 1.68v-.12c-.177-.12-.412-.3-.59-.48-.412.18-.884.3-1.415.36.177.36.354.66.59.96l1.415-.72zm-2.24-.24h-.531c-.118.3-.354.6-.472.9l.649.3c.059-.12.118-.3.118-.42.059.24.118.42.177.66l.707-.36c-.236-.36-.471-.72-.648-1.08zm-2.773.18l.413.18.118-.06.944.48c.177-.24.354-.54.472-.78a6.135 6.135 0 01-1.416-.36c-.118.12-.354.42-.53.54zm.354-.66a3.855 3.855 0 01-1.238-.96c-.118.18-.177.36-.295.48 0 .12-.118.36-.118.42l1.12.54c.118-.06.354-.36.53-.48zm-1.946-1.86h-.59c-.118.12-.177.3-.295.42 0 .3.06.72.118.9l.767.36c.177-.24.472-.72.59-.96a6.33 6.33 0 01-.59-.72zm-.825-.24v-.9c-.295-.24-.531-.48-.767-.72-.118.18-.236.42-.354.6-.059.84 0 1.68.236 2.16l.118.06c.236-.3.53-.78.708-1.08v-.12h.059zm-2.065-3.48c-.294.6-.59 1.2-1.002 1.8-.059.6-.118 1.14-.059 1.56l.767.36c.59-.66 1.061-1.32 1.415-2.04a7.567 7.567 0 01-1.12-1.68zm-.53-1.32c-.826.96-1.71 1.86-2.713 2.46-.118.42-.236.9-.236 1.26l1.18.54c1.002-.84 1.71-2.1 2.182-3.24-.177-.3-.295-.66-.413-1.02z" fill="#FFE000"/><path d="M22.53 33.72c0-.06-.058-.18-.058-.24-.531.3-1.062.54-1.652.54h-.354a13.97 13.97 0 01-2.653 1.38c-.295.36-.708.78-.944 1.08l1.18.6c1.887-.66 3.302-1.92 4.482-3.36zm20.465-3.84c-1.533-2.4-3.48-.72-5.838-2.22-.177.12-.413.12-.708.18.648.9 1.061 1.92 1.238 2.94.767 1.2 2.36 1.38 3.893 1.08-.531-.9-1.239-1.2-2.065-1.38-.943-.3-1.71-.66-1.946-1.68.826 1.74 3.303 1.5 5.426 1.08zm-3.362 3.84c0-.6-.471-1.44-.825-1.68-.472-.18-.767-.42-1.003-.78.059.3.059.6.059.84 0 .36-.059.78-.118 1.14.649.36 1.298.54 1.887.48zm-18.282-1.68c-.354.3-.767 1.08-.826 1.68.65.06 1.239-.12 1.888-.54-.06-.36-.06-.72-.06-1.08 0-.3 0-.66.06-.96-.236.42-.531.66-1.062.9zm-.766-1.56c-.826.18-1.534.54-2.064 1.38 1.592.3 3.243.12 4.01-1.2.177-1.02.649-1.98 1.238-2.82-.295 0-.53-.06-.707-.18-2.3 1.5-4.306-.18-5.839 2.22 2.123.48 4.6.72 5.367-1.08-.295 1.02-1.062 1.38-2.005 1.68zm14.507-4.2c.472.36.885.84 1.239 1.26.354 0 .648-.06.943-.24-1.592-.3-1.297-2.64-3.715-3.12l-.059.06c.236.24.472.54.649.9h.943v1.14zM23.946 27.6c.354-.48.767-.9 1.239-1.26V25.2h.826c.176-.36.412-.66.648-.9l-.059-.06c-2.418.54-2.123 2.82-3.715 3.12.354.18.648.24 1.061.24zm2.772-3.9l.177.36a3.8 3.8 0 01.766-.6c-.059-.12-.059-.3-.059-.48-.295.36-.59.6-.884.72zm5.956-.66c0 .18-.059.36-.059.48.295.18.531.36.767.6l.177-.36a2.62 2.62 0 01-.885-.72zm-3.361-.18h.236c0-.06-.059-.18-.059-.24-.06.06-.118.18-.177.24zm1.592 0c-.059-.06-.118-.18-.177-.3 0 .12-.059.18-.059.24.06.06.177.06.236.06z" fill="#FFE000"/><path d="M33.736 22.74c-.472-.12-1.003-.6-1.298-1.08a2.66 2.66 0 01-.471.66l-.177.18-.177-.18c-.354-.42-.53-.96-.649-1.5-.236.48-1.592.48-1.77 0a2.791 2.791 0 01-.648 1.5l-.177.18-.177-.18c-.177-.12-.294-.36-.471-.66-.354.48-.885 1.02-1.298 1.08l-.177.06c-.118.3-.295.6-.53.9.648.12 1.592-.48 2.063-1.38 0 .48 0 .78.06 1.08.353-.18.707-.36 1.12-.42.236-.3.472-.72.53-1.26.119.6.177.9.296 1.14h.59c.117-.24.176-.6.294-1.14.06.54.295.96.531 1.26.413.12.767.24 1.12.42.06-.24.06-.54.06-1.08.53.9 1.415 1.5 2.063 1.38a3.62 3.62 0 01-.53-.9l-.177-.06z" fill="#FFE000"/><path d="M34.031 38.82h.825V37.8c1.71-1.32 2.831-3.36 2.831-5.7 0-2.28-1.12-4.38-2.83-5.7v-1.02h-.826c-.708-1.38-2.123-2.34-3.774-2.34h-.295c-1.652 0-3.067.96-3.775 2.34h-.766v1.02c-1.71 1.32-2.831 3.36-2.831 5.7 0 2.28 1.12 4.38 2.83 5.7v1.02h.767c.708 1.38 2.123 2.34 3.775 2.34h.294c1.652 0 3.067-.96 3.775-2.34zm-3.774 1.98h-.295c-1.475 0-2.772-.84-3.48-2.16l-.118-.18h-.649v-.78l-.117-.12a6.775 6.775 0 01-2.654-5.4c0-2.1 1.002-4.08 2.654-5.4l.117-.12v-.84h.65l.117-.18c.708-1.32 2.005-2.16 3.48-2.16h.294c1.475 0 2.772.84 3.48 2.16l.118.18h.649v.78l.118.12a6.775 6.775 0 012.653 5.4c0 2.1-1.002 4.08-2.653 5.4l-.118.12v.78h-.649l-.118.18c-.708 1.38-2.005 2.22-3.48 2.22zm3.597-24c-.59.72-.944 1.38-.826 2.1.295-.48.708-.9 1.357-1.26 0 0 .294-.42.53-.48-.943 1.2-.766 2.22-.59 2.58.354-1.02 1.18-1.56 1.534-1.74.767-.36.354-1.74 1.474-2.4-.648-.12-1.238-.12-1.769.3-.472.36-1.297.78-2.3.24-.413.66-1.297 1.56-2.064 1.68.649.12 1.71.06 2.654-1.02zm2.89-1.14c-.472.66-.826.36-1.062.24.531-.24.826-.18 1.062-.24zm3.833 35.58l-.354.36.354-1.14s-1.18.12-.708 1.14l.06.18c.117.3.412.6.648.72l.177.12c.236.12.354 0 .236-.3l-.413-1.08zm5.367-1.44l-.177-.06c-.236-.12-.472 0-.59.24l-.649 1.38.53.12-.648.12-.236.6s.649.12 1.12-.66c.119-.18.355-.06.414-.18l.412-.96c.119-.24.06-.48-.176-.6zm-3.009-.78c.118-.24 0-.48-.235-.6l-.177-.12c-.236-.12-.472 0-.59.24l-.354.72c-.118.24.118.36 0 .6-.177.6.295 1.32.295 1.32l.236-.6.059-.12-.354-.84.53.54.59-1.14zm1.593.6c.06-.18 0-.42-.177-.48l-.295-.12c-.177-.06-.412 0-.471.18l-.649 1.5c-.236.54 0 1.32 0 1.32.354-.24.649-.48.825-.96L43.29 51l.825-.3.413-1.08z" fill="#FFE000"/></svg>