<?xml version="1.0" encoding="UTF-8"?>
<!DOCTYPE svg PUBLIC "-//W3C//DTD SVG 1.1//EN" "http://www.w3.org/Graphics/SVG/1.1/DTD/svg11.dtd">
<!-- Creator: CorelDRAW 2019 (64-Bit) -->
<svg xmlns="http://www.w3.org/2000/svg" xml:space="preserve" width="700px" height="800px" version="1.1" style="shape-rendering:geometricPrecision; text-rendering:geometricPrecision; image-rendering:optimizeQuality; fill-rule:evenodd; clip-rule:evenodd"
viewBox="0 0 700 800"
 xmlns:xlink="http://www.w3.org/1999/xlink"
 xmlns:a="http://ns.adobe.com/AdobeSVGViewerExtensions/3.0/"
 enable-background="new 0 0 537 619">
 <defs>
  <style type="text/css">
   <![CDATA[
    .fil0 {fill:#479E70}
   ]]>
  </style>
 </defs>
 <g id="Слой_x0020_1">
  <metadata id="CorelCorpID_0Corel-Layer"/>
  <path class="fil0" d="M614.79 393.84c7.08,-2 31.71,-9.19 49.06,-23.27 17.35,-14.09 20.74,-25.37 22.15,-31.46 1.39,-6.1 1.99,-10.89 -2.5,-7.39 -4.48,3.48 -17.95,14.07 -27.12,19.17 -9.18,5.09 -17.66,7.49 -22.65,8.89 -4.98,1.4 -8.97,2.3 -4.18,0.4 4.78,-1.9 20.44,-7.39 32.51,-19.48 12.07,-12.08 21.6,-30.19 21.8,-41.31 0.2,-11.12 -0.59,-10.32 -4.17,-7.54 -3.57,2.78 -16.28,18.47 -23.43,24.42 -7.14,5.96 -18.66,13.9 -24.42,17.27 -5.76,3.38 -13.89,7.15 -2.58,-0.59 11.32,-7.74 32.76,-26.01 41.5,-49.64 8.73,-23.63 7.14,-37.52 6.95,-39.91 -0.2,-2.38 -2.19,-7.14 -4.17,-2.77 -1.99,4.36 -16.29,32.95 -27.8,45.26 -11.52,12.31 -8.74,9.93 -11.32,11.92 -2.58,1.98 -6.95,5.56 -1.38,-1.4 5.55,-6.94 17.07,-23.03 23.03,-38.91 5.95,-15.88 7.54,-31.77 7.74,-40.9 0.19,-9.13 -3.77,-21.84 -5.56,-25.61 -1.79,-3.78 -3.58,-6.55 -4.17,-2.19 -0.6,4.37 -9.73,32.57 -14.69,46.26 -4.97,13.71 -14.89,29.19 -16.88,32.17 -1.98,2.98 -7.14,9.13 -1.59,-1.19 5.56,-10.33 16.28,-40.7 17.67,-69.49 1.39,-28.79 -2.58,-44.68 -6.55,-52.62 -3.97,-7.94 -7.41,-10.76 -7.41,-10.76 0,0 0.68,19.65 -5.19,47.89 -5.86,28.24 -14.43,43.15 -14.43,43.15 0,0 -3.61,4.06 -1.13,-2.71 1.67,-4.56 5.11,-14.59 6.69,-31.59 1.66,-17.84 1.86,-38.14 -3.35,-55.41 -5.67,-18.82 -15.51,-28.44 -15.51,-28.44 -2.75,27 -2.2,61.78 -12.1,89.97 -1.85,-1.65 -4.3,-4.71 -5.27,1.52 -1.81,9.27 -5.42,26.66 -17.6,48.8 -12.18,22.13 -17.14,25.07 -17.14,25.07 0,0 -2.25,-5.42 -3.84,-8.36 -1.57,-2.93 -2.48,-4.51 -4.51,-0.45 -2.02,4.07 -8.79,19.65 -23.68,36.82 -14.89,17.17 -23.23,25.53 -22.78,38.4 0.45,12.88 7.21,19.43 16.24,25.3 9.02,5.88 10.6,9.04 9.25,16.04 -1.36,7.01 -9.48,9.49 -16.47,9.72 -7,0.22 -15.79,-0.46 -18.95,1.35 -3.16,1.81 -3.38,6.33 -6.54,9.48 -3.15,3.17 -4.51,4.97 -7.44,5.43 -1.03,0.16 -1.87,0.26 -2.52,0.33 -0.65,-33.97 12.51,-49.11 12.51,-49.11l-36.78 -43.21c-1.91,0.93 -3.8,1.8 -5.71,2.63 -0.26,-0.5 -0.61,-1.04 -1.07,-1.63 -4.9,-6.25 -6.5,-11.55 -6.5,-19.57 1.83,0.19 5.5,1.51 8.83,0.84 3.34,-0.66 0.83,-4.01 -0.16,-7.18 -1,-3.19 -2.01,-14.21 -1.34,-18.4 0.67,-4.18 1,-5.85 1,-5.85 0,0 5.34,5.85 8.67,5.85 3.34,0 3,-3.34 3.5,-7.02 0.75,-5.54 3.36,-12.55 7.67,-16.39 0,0 5.83,4.02 12.5,4.02 6.67,0 15.66,-1.84 22.83,-8.7 7.17,-6.85 7.01,-8.52 7.01,-8.52 0,0 13.33,4.68 23.5,5.18 10.17,0.5 21,-1.17 26.17,-11.87 5.17,-10.7 -1.51,-20.56 -2.67,-22.24 -1.17,-1.67 -4.5,-3.01 -4.5,0 0,3.02 0.17,11.04 -6,15.05 -6.17,4.01 -11,3.84 -16.84,2.01 -5.83,-1.84 -14,-4.18 -23.33,-2.85 -8.38,1.2 -9.51,1.86 -9.65,1.99 0.43,-0.45 8.03,-8.24 15.48,-10.51 7.67,-2.34 12.17,0.83 14.67,3.84 2.5,3.01 4.67,7.86 6.67,0.84 2,-7.02 0.83,-15.05 -2.5,-20.23 -3.34,-5.19 -10.5,-8.53 -18,-7.69 -7.51,0.83 -10.17,2 -10.17,2 0,0 -3.84,-10.86 -13.5,-12.87 -11.8,-2.45 -24.81,1.99 -35.01,7.69 0,0 -8,1.84 -16.16,-0.5 -5.35,-1.53 -10.7,-4.79 -13.76,-6.84 0.93,-3.13 2.76,-8.9 2.76,-8.9 0,0 2.34,-0.71 4.78,-1.63 2.44,-0.91 1.93,-1.73 2.24,-3.76 0.3,-2.04 -4.59,-5.58 -4.59,-5.58 0,0 -0.71,-6.11 7.33,-10.3 8.04,-4.19 7.17,-3.5 7.17,-3.5 0,0 4.71,0.88 6.63,-0.52 1.92,-1.4 1.92,-2.27 1.92,-2.27 0,0 3.56,-1.17 4.87,-3.32 1.3,-2.14 1.55,-5.24 0.59,-7.74 -0.94,-2.51 -2.14,-2.98 -0.83,-4.18 1.31,-1.19 2.5,-4.05 2.62,-6.08 0.12,-2.03 0.12,-2.5 0.12,-2.5 0,0 2.73,-0.96 2.61,-5.13 -0.12,-4.18 -2.38,-5.85 -3.69,-6.2 -1.3,-0.36 -2.13,-0.36 -2.13,-0.36 0,0 -0.24,-2.51 -2.38,-5.84 -2.15,-3.34 -3.57,-4.77 -3.57,-4.77 0,0 1.55,-1.18 0.71,-3.93 -0.83,-2.74 -2.73,-4.41 -4.64,-5.01 -1.9,-0.6 -3.91,0 -3.91,0 0,0 -6.31,-3.81 -9.28,-5.37 -2.97,-1.54 -3.68,-1.9 -3.68,-1.9 0,0 -0.12,-2.63 -1.19,-4.06 -1.07,-1.43 -3.57,-2.02 -4.88,-2.02 -1.3,0 -2.73,0.71 -2.73,0.71 0,0 -10.7,-2.74 -15.1,-3.46 -4.4,-0.71 -4.64,-1.07 -4.64,-1.07 0,0 -9.5,-4.53 -13.19,-5.25 -3.69,-0.71 -4.75,-1.07 -4.75,-1.07 0,0 3.84,-4.65 4.08,-10.02 0.24,-5.36 -3.32,-10.43 -7.12,-12.69 -2.15,-1.27 -3.3,-1.48 -4,-1.92l-0.08 -3.69 7.14 0.72 0.59 -11.5 -6.95 0.88 1.07 -6.92 -14.59 -0.17 1.07 6.92 -7.01 -0.48 0.59 11.33 7.38 -0.95 -0.72 4.28c0,0 -2.7,0.46 -4.99,2.15 -3.8,2.26 -7.02,6.68 -6.78,12.05 0.24,5.36 3.45,10.14 3.45,10.14 0,0 -0.95,0.23 -4.64,0.95 -3.68,0.71 -13.2,5.24 -13.2,5.24 0,0 -0.23,0.36 -4.63,1.08 -4.4,0.71 -15.1,3.46 -15.1,3.46 0,0 -1.42,-0.72 -2.73,-0.72 -1.31,0 -3.81,0.6 -4.88,2.03 -1.07,1.43 -1.18,4.05 -1.18,4.05 0,0 -0.72,0.36 -3.69,1.91 -2.98,1.55 -9.27,5.36 -9.27,5.36 0,0 -2.03,-0.59 -3.93,0 -1.9,0.6 -3.8,2.27 -4.63,5.02 -0.83,2.74 0.71,3.92 0.71,3.92 0,0 -1.43,1.43 -3.57,4.77 -2.14,3.34 -2.38,5.84 -2.38,5.84 0,0 -0.83,0 -2.14,0.36 -1.31,0.36 -3.56,2.03 -3.68,6.2 -0.12,4.17 2.62,5.13 2.62,5.13 0,0 0,0.47 0.11,2.51 0.12,2.02 1.31,4.88 2.62,6.07 1.3,1.2 0.12,1.67 -0.84,4.18 -0.95,2.5 -0.71,5.6 0.6,7.75 1.31,2.15 4.86,3.31 4.86,3.31 0,0 0,0.88 1.93,2.27 1.91,1.4 6.63,0.53 6.63,0.53 0,0 -0.87,-0.7 7.16,3.49 8.04,4.19 7.34,10.3 7.34,10.3 0,0 -4.89,3.55 -4.59,5.58 0.31,2.03 -0.2,2.85 2.24,3.76 2.44,0.92 4.78,1.63 4.78,1.63 0,0 1.83,5.77 2.75,8.9 -3.05,2.05 -8.4,5.31 -13.74,6.84 -8.17,2.35 -16.18,0.5 -16.18,0.5 -10.19,-5.7 -23.2,-10.13 -35,-7.68 -9.66,2 -13.5,12.86 -13.5,12.86 0,0 -2.66,-1.16 -10.17,-2 -7.5,-0.84 -14.66,2.51 -18,7.69 -3.33,5.18 -4.5,13.21 -2.5,20.23 2,7.03 4.17,2.17 6.67,-0.84 2.5,-3 7,-6.18 14.67,-3.84 7.44,2.27 15.05,10.07 15.48,10.51 -0.15,-0.12 -1.27,-0.78 -9.65,-1.98 -9.33,-1.34 -17.5,1 -23.33,2.84 -5.84,1.84 -10.67,2.01 -16.84,-2.01 -6.17,-4.01 -6,-12.03 -6,-15.04 0,-3.02 -3.33,-1.68 -4.5,0 -1.16,1.67 -7.83,11.53 -2.67,22.23 5.17,10.7 16,12.37 26.17,11.87 10.17,-0.5 23.5,-5.18 23.5,-5.18 0,0 -0.16,1.67 7.01,8.53 7.16,6.85 16.16,8.69 22.83,8.69 6.67,0 12.5,-4.01 12.5,-4.01 4.31,3.84 6.92,10.84 7.67,16.38 0.5,3.68 0.17,7.02 3.5,7.02 3.34,0 8.67,-5.85 8.67,-5.85 0,0 0.33,1.68 1,5.85 0.67,4.19 -0.33,15.22 -1.33,18.4 -1,3.17 -3.5,6.52 -0.17,7.18 3.34,0.67 7,-0.65 8.83,-0.83 0,8.01 -1.6,13.31 -6.5,19.56 -0.43,0.55 -0.77,1.06 -1.02,1.54 -1.83,-0.8 -3.65,-1.64 -5.47,-2.54l-36.78 43.21c0,0 13.22,15.22 12.51,49.36l0 -0.24c-0.67,-0.06 -1.56,-0.17 -2.68,-0.34 -2.94,-0.45 -4.29,-2.26 -7.45,-5.42 -3.15,-3.16 -3.38,-7.68 -6.54,-9.49 -3.15,-1.8 -11.95,-1.12 -18.94,-1.35 -7,-0.23 -15.12,-2.71 -16.47,-9.71 -1.35,-7.01 0.23,-10.17 9.25,-16.04 9.02,-5.87 15.78,-12.43 16.24,-25.31 0.45,-12.87 -7.9,-21.23 -22.78,-38.4 -14.89,-17.16 -21.66,-32.75 -23.69,-36.82 -2.03,-4.06 -2.93,-2.48 -4.51,0.46 -1.58,2.93 -3.83,8.35 -3.83,8.35 0,0 -4.97,-2.93 -17.14,-25.07 -12.19,-22.14 -15.8,-39.53 -17.6,-48.8 -0.98,-6.23 -3.43,-3.17 -5.28,-1.51 -9.9,-28.2 -9.35,-62.98 -12.09,-89.97 0,0 -9.84,9.62 -15.51,28.43 -5.21,17.28 -5.01,37.57 -3.35,55.41 1.57,17 5.01,27.03 6.68,31.59 2.48,6.78 -1.12,2.71 -1.12,2.71 0,0 -8.58,-14.91 -14.44,-43.15 -5.87,-28.23 -5.19,-47.89 -5.19,-47.89 0,0 -3.44,2.82 -7.41,10.77 -3.97,7.94 -7.94,23.82 -6.55,52.61 1.39,28.79 12.11,59.17 17.67,69.49 5.56,10.33 0.4,4.17 -1.59,1.19 -1.98,-2.98 -11.91,-18.46 -16.87,-32.16 -4.97,-13.7 -14.1,-41.9 -14.7,-46.26 -0.59,-4.37 -2.38,-1.59 -4.17,2.19 -1.78,3.77 -5.75,16.47 -5.56,25.6 0.2,9.13 1.79,25.02 7.75,40.91 5.96,15.88 17.47,31.96 23.03,38.91 5.56,6.95 1.19,3.37 -1.39,1.39 -2.58,-1.99 0.2,0.39 -11.32,-11.92 -11.51,-12.3 -25.81,-40.9 -27.79,-45.26 -1.99,-4.37 -3.97,0.4 -4.17,2.78 -0.2,2.38 -1.79,16.28 6.95,39.9 8.73,23.63 30.18,41.9 41.49,49.64 11.32,7.74 3.18,3.97 -2.58,0.6 -5.75,-3.38 -17.27,-11.32 -24.42,-17.28 -7.15,-5.95 -19.85,-21.64 -23.43,-24.42 -3.57,-2.78 -4.36,-3.57 -4.17,7.55 0.2,11.12 9.74,29.22 21.81,41.31 12.06,12.08 27.72,17.58 32.51,19.47 4.79,1.9 0.8,1 -4.19,-0.39 -4.99,-1.4 -13.46,-3.81 -22.64,-8.9 -9.18,-5.09 -22.64,-15.68 -27.13,-19.17 -4.48,-3.5 -3.88,1.29 -2.49,7.39 1.4,6.09 4.79,17.38 22.14,31.46 17.35,14.08 41.99,21.27 49.07,23.28 7.08,1.99 2.09,1.99 2.09,1.99 0,0 -2.79,-0.4 -17.15,-3.6 -14.36,-3.19 -36.1,-14.58 -41.99,-18.27 -5.88,-3.7 -6.78,-5.1 -5.98,2.69 0.8,7.79 9.08,24.47 22.34,32.26 13.26,7.79 37.2,11.79 43.38,12.09 6.19,0.3 4.59,1.2 1.8,1.39 -2.8,0.2 -9.68,0.2 -20.95,-1.09 -9.24,-1.07 -22.96,-5.55 -27.61,-7.14 -0.52,-1.99 -1,-3.91 -1.22,-5.1 -0.55,-2.97 -2.08,-2.53 -3.07,-1.86 -0.99,0.65 -1.54,1.2 -4.83,2.85 -3.29,1.66 -3.4,-0.32 -3.51,-1.31 -0.11,-1 -0.77,-5.29 -0.88,-7.48 -0.11,-2.21 -1.32,-2.32 -2.85,-1.66 -1.54,0.66 -8.89,3.74 -11.63,4.96 -2.74,1.2 -0.22,3.4 1.21,6.04 1.42,2.65 3.62,6.5 3.62,6.5 0,0 -6.91,1.87 -9.11,2.42 -2.19,0.55 -1.53,2.09 -0.99,3.63 0.56,1.54 3.95,9.25 4.83,11.45 0.88,2.2 2.86,0.88 2.86,0.88l6.9 -4.07 2.42 9.24c-0.12,0.14 -3.2,0.73 -6.69,3.18 -3.49,2.45 -2.62,5.61 1.57,6.83 4.19,1.23 9.08,3.33 14.5,13.14 5.41,9.82 6.81,27.5 10.13,55.36 3.31,27.85 21.13,42.04 23.58,43.8 2.44,1.75 1.04,3.15 1.04,3.15 0,0 -2.44,3.51 -1.39,8.94 1.05,5.42 5.76,8.58 8.21,9.46 2.44,0.87 1.74,3.32 1.74,3.32 0,0 -1.22,5.96 0,16.82 1.23,10.86 10.13,23.13 12.58,25.23 2.44,2.1 2.62,3.15 2.27,4.03 -0.35,0.87 -1.92,0.18 -4.89,2.45 -2.97,2.28 -6.29,5.43 -8.38,9.28 -2.1,3.86 -1.4,6.14 -0.71,11.39 0.7,5.26 8.39,9.99 8.39,9.99 0,0 -1.4,0.35 -1.75,4.2 -0.35,3.86 2.45,8.23 5.94,11.04 3.49,2.8 10.13,4.2 10.13,4.2 0,0 0.52,3.33 0.87,5.61 0.35,2.28 4.72,4.55 7.51,6.13 2.8,1.57 8.21,0.7 10.48,-0.35 2.27,-1.05 3.84,0.18 5.24,2.45 1.4,2.28 0.88,11.04 0.88,14.54 0,3.5 -2.1,7.18 -0.88,8.94 1.23,1.75 4.54,0.52 7.86,-1.4 3.32,-1.93 4.19,-0.53 7.16,1.4 2.97,1.92 7.69,3.68 8.91,3.5 1.22,-0.18 0.7,-3.33 0.7,-5.96 0,-2.63 0.47,-8.57 1.69,-9.45 0.58,-0.41 5.72,-0.79 9.66,-2.46 1.84,-0.77 4.2,-1.58 4.37,-3.33 0.18,-1.75 -2.45,-1.75 -8.21,-4.73 -5.76,-2.97 -6.81,-4.73 -10.48,-7.18 -3.66,-2.45 -1.92,-3.33 -1.92,-4.38 0,-1.05 1.75,-2.28 2.45,-3.68 0.69,-1.4 0.34,-4.55 0.34,-4.55 0,0 2.97,-2.98 4.37,-4.56 1.4,-1.57 3.14,-4.03 5.07,-5.61 1.92,-1.57 4.89,-9.1 6.81,-11.56 1.92,-2.45 6.29,-5.07 8.9,-8.4 2.62,-3.33 9.61,-8.76 13.63,-11.39 4.02,-2.63 14.84,-7.71 14.84,-7.71 0,0 -0.17,6.48 2.62,9.63 2.8,3.16 6.47,-2.45 18.87,-11.21 12.4,-8.76 21.83,-11.91 21.83,-11.91 0,0 2.62,4.03 5.94,8.23 3.32,4.21 6.29,-0.18 21.48,-21.19 11.99,-16.59 27.77,-31.75 33.91,-37.42 1.13,0.5 2.25,1.01 3.36,1.52 -0.29,0.81 -0.6,1.73 -0.92,2.73 -1.4,4.35 -3.66,7.14 -6.62,13.23 -2.96,6.09 -7.48,7.48 -12.7,15.66 -5.22,8.18 -5.92,13.74 -6.44,22.1 -0.52,8.35 4.17,10.1 4.17,10.1 0,0 -7.65,7.48 -9.92,13.05 -2.26,5.56 -3.48,16.88 -3.48,16.88 0,0 -1.22,0.52 -4,6.27 -2.79,5.74 -7.83,6.61 -15.14,13.92 -7.31,7.31 -15.49,10.44 -19.32,12.7 -3.83,2.27 -2.79,4.53 -1.74,7.49 1.04,2.95 6.27,5.91 12.36,8.18 6.09,2.25 8.18,1.39 12.35,1.21 4.18,-0.17 0.88,3.14 -0.87,4.87 -1.73,1.75 -4,7.84 -3.65,14.62 0.35,6.79 5.4,5.22 11.66,4.18 6.26,-1.04 13.57,-4.18 13.57,-4.18 0,0 0,0 -0.69,1.92 -0.7,1.91 -1.05,3.3 -1.05,8.7 0,5.4 0.87,8.01 2.44,9.39 1.57,1.4 4.7,-1.56 6.96,-2.25 2.26,-0.71 6.09,-2.96 11.66,-4.18 5.57,-1.22 7.66,-3.65 7.66,-3.65 0,0 -1.39,1.73 -1.74,5.56 -0.35,3.84 -0.17,9.58 0.7,12.89 0.87,3.3 3.3,7.3 7.13,10.78 3.83,3.49 4.7,1.92 7.48,-2.43 2.79,-4.36 8.53,-9.93 8.53,-9.93 0,0 0.35,1.4 4.18,13.75 3.83,12.36 16.36,22.63 16.36,22.63 0,0 12.53,-10.27 16.36,-22.63 3.83,-12.35 4.17,-13.75 4.17,-13.75 0,0 5.75,5.57 8.53,9.93 2.79,4.35 3.66,5.92 7.49,2.43 3.82,-3.48 6.26,-7.48 7.13,-10.78 0.87,-3.31 1.05,-9.05 0.7,-12.89 -0.35,-3.83 -1.74,-5.56 -1.74,-5.56 0,0 2.09,2.43 7.66,3.65 5.56,1.22 9.39,3.48 11.65,4.18 2.27,0.69 5.4,3.65 6.97,2.25 1.56,-1.38 2.43,-3.99 2.43,-9.39 0,-5.4 -0.34,-6.79 -1.04,-8.7 -0.7,-1.92 -0.7,-1.92 -0.7,-1.92 0,0 7.31,3.14 13.58,4.18 6.26,1.04 11.31,2.61 11.66,-4.18 0.34,-6.79 -1.92,-12.87 -3.66,-14.62 -1.74,-1.73 -5.04,-5.04 -0.87,-4.87 4.18,0.18 6.27,1.04 12.36,-1.21 6.09,-2.27 11.31,-5.23 12.36,-8.18 1.04,-2.97 2.09,-5.22 -1.74,-7.49 -3.83,-2.26 -12.01,-5.39 -19.32,-12.7 -7.31,-7.31 -12.36,-8.18 -15.15,-13.92 -2.78,-5.75 -3.99,-6.27 -3.99,-6.27 0,0 -1.23,-11.32 -3.49,-16.88 -2.26,-5.58 -9.92,-13.05 -9.92,-13.05 0,0 4.7,-1.75 4.18,-10.1 -0.52,-8.36 -1.21,-13.92 -6.44,-22.1 -5.22,-8.18 -9.75,-9.57 -12.71,-15.66 -2.96,-6.09 -5.22,-8.88 -6.61,-13.23 -0.28,-0.88 -0.58,-1.76 -0.89,-2.63 1.49,-0.67 2.99,-1.33 4.49,-1.97 6.09,5.61 21.95,20.82 33.97,37.46 15.2,21.02 18.17,25.4 21.49,21.19 3.31,-4.2 5.93,-8.22 5.93,-8.22 0,0 9.43,3.15 21.84,11.91 12.4,8.76 16.07,14.36 18.86,11.21 1.47,-1.66 1.8,-4.42 1.98,-6.53 0,0 7.13,2.08 15.29,4.94 4.89,1.72 10.33,3.88 14.36,5.58 10.74,4.55 11.91,6.89 20.46,13.64 8.54,6.75 20.71,6.1 32.23,2.59 11.52,-3.5 42.21,-13.62 54.51,-18.95 12.3,-5.33 21.1,-10 22.4,-12.47 1.29,-2.47 2.71,-9.35 2.71,-11.81 0,-2.47 -2.71,-6.1 -3.62,-6.76 -0.9,-0.65 -0.51,-2.6 -0.26,-4.15 0.26,-1.56 -0.51,-6.23 -2.45,-8.32 -1.95,-2.07 -1.69,-2.85 -1.43,-8.83 0.55,-12.66 -8.49,-28.64 -21.3,-33.72 0,0 -0.34,-1.47 -1.39,-2.34 -1.03,-0.87 -2.76,-1.64 -2.76,-1.64 0,0 0.26,-7.29 0.17,-8.85 -0.08,-1.56 0.61,-1.38 1.48,-0.95 0.86,0.43 2.24,2.17 4.32,2.69 2.07,0.51 3.37,-0.96 3.8,-3.3 0.43,-2.34 2.16,-7.02 2.94,-9.36 0.78,-2.34 -0.18,-2.69 -1.13,-2.95 -0.94,-0.26 -4.06,-0.6 -5.53,-0.96 -1.47,-0.34 -1.47,-0.43 -1.12,-1.21 0.35,-0.77 0.86,-1.99 2.76,-4.94 1.91,-2.95 0.18,-3.04 -1.64,-3.64 -1.82,-0.61 -10.02,-3.12 -12.27,-3.47 -2.25,-0.35 -2.77,1.56 -2.77,2.51 0,0.96 0.09,5.12 0.17,6.68 0.09,1.56 -1.38,1.12 -2.24,0.69 -0.87,-0.43 -2.86,-1.65 -4.41,-2.86 -1.56,-1.21 -2.68,-0.09 -3.29,1.65 -0.6,1.73 -2.5,8.85 -3.11,10.93 -0.6,2.08 -0.43,3.72 0.44,4.07 0.86,0.35 4.92,0 7.35,0 2.41,0 1.03,1.39 1.03,1.39 0,0 -2.59,4.25 -3.46,5.89 -0.86,1.65 -2.33,1.91 -4.32,1.91 -1.99,0 -5.32,-0.03 -5.32,-0.03 0,0 -13.28,0.5 -23.06,7.77 -9.78,7.27 -12.53,13.29 -14.04,16.79 -1.5,3.52 -3.25,2.76 -4.76,4.01 -1.5,1.26 -5.76,5.77 -5.76,8.53 0,2.76 1,4.26 -3.26,7.01 -4.26,2.77 -7.77,14.79 -2.01,21.06 5.77,6.26 8.02,12.53 9.78,15.54 1.75,3.01 0,4.26 -1.51,4.26 -1.5,0 -4.64,-2.55 -7.26,-4.52 -2.63,-1.95 -15.87,-12.29 -21.55,-16.53 -5.7,-4.25 -1.51,-3.76 -1.51,-3.76 0,0 1.45,0.13 4.77,-1.27 3.31,-1.4 3.84,-3.15 0.52,-4.2 -3.32,-1.05 -9.78,-4.73 -11.53,-6.49 -1.75,-1.75 -2.62,-3.67 0.7,-5.43 3.32,-1.75 10.66,-6.48 4.89,-8.05 -5.77,-1.59 -12.58,-2.81 -18.16,-4.39 -5.59,-1.57 -6.12,-3.15 -6.12,-3.15l3.67 -5.26c0,0 2.97,-4.2 -0.52,-4.72 -3.49,-0.53 -11.88,-1.58 -19.56,-4.91 -15.35,-6.65 -24.97,-17.93 -28.53,-31.69l0.25 -0.33c2.87,5.67 9.55,16.27 19.61,16.6 13.76,0.46 15.34,-3.84 12.18,-8.36 -3.15,-4.52 -6.76,-8.58 -7.67,-9.93 -0.9,-1.36 -1.13,-3.17 2.48,0.22 3.61,3.39 10.48,14.91 31.24,13.56 20.75,-1.36 20.64,-5.43 20.64,-6.56 0,-3.98 -4.22,-4.61 -6.72,-7.11 -1.3,-1.3 -2.09,-3.2 2.1,-1.6 4.19,1.6 14.46,3.49 28.42,0.5 5.51,-1.18 20.13,-7.56 21.54,-14.98 0,0 -9.27,-0.5 -15.75,-3.3 -6.49,-2.8 -10.38,-5.09 -3.49,-3.69 6.88,1.4 20.25,4.19 32.01,0.2 6.88,-2.34 15.76,-7.9 15.76,-18.08 0,0 -12.77,-2.69 -17.46,-4.4 -4.68,-1.69 -6.18,-2.99 -6.18,-2.99 0,0 18.24,5.79 34.81,-2.6 16.55,-8.39 17.25,-19.87 17.25,-22.57 0,-2.7 -0.4,-3.5 -0.4,-3.5 0,0 -15.06,3.7 -26.33,3.6 -11.27,-0.1 -14.76,-1.1 -14.76,-1.1 0,0 31.52,-0.9 47.37,-10.58 15.86,-9.69 16.76,-28.77 16.76,-28.77 0,0 -17.96,6.39 -29.22,7.69 -11.27,1.29 -18.16,1.29 -20.95,1.09 -2.79,-0.19 -4.38,-1.09 1.8,-1.39 6.19,-0.3 30.11,-4.3 43.38,-12.09 13.27,-7.79 21.54,-24.47 22.34,-32.26 0.8,-7.79 -0.1,-6.39 -5.98,-2.69 -5.89,3.69 -27.63,15.08 -41.99,18.27 -14.36,3.2 -17.15,3.6 -17.15,3.6 0,0 -5,0 2.09,-2zm-567.34 36.25c-1.53,0.88 -6.36,3.63 -6.36,3.63 0,0 -2.52,-5.17 -3.18,-6.71 -0.66,-1.55 -0.33,-2.21 0.54,-2.21 0.88,0 3.52,-0.76 5.6,-0.98 0.3,-0.03 0.57,-0.08 0.81,-0.14 0.7,1.99 1.61,4.14 2.82,6.3 -0.08,0.02 -0.15,0.06 -0.23,0.11zm193.44 113.24c-3.85,7.19 -14.33,14.73 -22.01,18.05 -7.68,3.33 -16.07,4.39 -19.56,4.91 -3.49,0.52 -0.52,4.73 -0.52,4.73l3.66 5.26c0,0 -0.52,1.57 -6.11,3.15 -5.59,1.57 -12.4,2.8 -18.16,4.38 -5.77,1.57 1.57,6.3 4.89,8.06 3.32,1.75 2.44,3.68 0.69,5.43 -1.74,1.75 -8.2,5.43 -11.52,6.48 -3.32,1.05 -2.8,2.81 0.52,4.21 3.32,1.39 12.4,3.15 12.4,3.15 0,0 -0.17,0.35 -5.76,4.55 -5.59,4.21 -15.37,7.01 -21.83,7.36 -6.47,0.35 -16.68,0.77 -29.64,0.17 -12.95,-0.59 -14.44,-0.88 -14.44,-0.88 0,0 -0.45,-4.33 -1.34,-10.73 -0.9,-6.4 -4.77,-15.49 -7.75,-19.65 -2.98,-4.18 -9.23,-12.51 -9.23,-12.51 0,0 0.15,-1.79 0.6,-3.88 0.44,-2.08 0.14,-4.31 -1.37,-8.25 -1.52,-3.94 -9.08,-9.69 -9.08,-9.69 0,0 -0.31,-4.23 -0.31,-8.17 0,-3.94 -2.72,-19.38 -5.14,-26.64 -2.42,-7.27 -14.23,-26.34 -19.68,-35.42 -5.45,-9.08 -8.68,-22.54 -10.33,-32.99 -1.65,-10.46 -0.99,-13.87 -0.44,-16.62 0.24,-1.21 0.75,-2.3 1.24,-3.28 2.24,2.89 5.1,5.63 8.76,7.87 15.85,9.69 47.37,10.59 47.37,10.59 0,0 -3.49,1 -14.76,1.1 -11.27,0.1 -26.33,-3.6 -26.33,-3.6 0,0 -0.4,0.8 -0.4,3.5 0,2.69 0.7,14.18 17.26,22.56 16.55,8.39 34.8,2.61 34.8,2.61 0,0 -1.5,1.29 -6.18,2.99 -4.69,1.7 -17.45,4.4 -17.45,4.4 -0.01,10.18 8.88,15.74 15.75,18.08 11.77,3.99 25.13,1.19 32.02,-0.2 6.88,-1.4 2.99,0.89 -3.5,3.69 -6.48,2.79 -15.75,3.3 -15.75,3.3 1.42,7.42 16.03,13.8 21.54,14.97 13.96,3 24.23,1.11 28.42,-0.49 4.19,-1.6 3.4,0.29 2.1,1.6 -2.5,2.49 -6.72,3.13 -6.72,7.11 0,1.13 -0.11,5.2 20.65,6.55 20.75,1.36 27.62,-10.16 31.23,-13.55 3.61,-3.4 3.38,-1.59 2.48,-0.23 -0.9,1.35 -4.51,5.42 -7.67,9.94 -3.16,4.52 -1.58,8.81 12.18,8.36 10.13,-0.33 16.84,-11.08 19.67,-16.72l0.19 0.26c0.19,0.25 0.37,0.5 0.56,0.74 -1.3,3.34 -3.54,8.8 -6,13.39zm167.37 -448.88c-1.88,-3.57 -2.87,-5.25 -2.87,-5.25 0,0 7.82,3.66 12.47,8.92 4.65,5.27 4.55,8.04 5.24,10.63 0.69,2.58 0,7.34 -0.69,11.8 -0.69,4.47 -0.69,7.15 0.2,8.74 0.89,1.59 1.68,2.38 1.68,2.38 0,0 -3.47,0.89 -6.73,2.18 -3.27,1.3 -7.52,2.48 -9.89,0.5 -2.38,-1.99 -2.97,-3.38 -1.48,-4.67 1.48,-1.29 7.02,-2.87 7.71,-12.4 0.69,-9.53 -3.76,-19.25 -5.64,-22.83zm-42.63 25.92c1.78,-4.53 2.52,-8.85 1.15,-18.12 -1.14,-7.79 -2.65,-14.46 -3.04,-22.85 0,0 5.78,1.26 14.07,8.84 8.29,7.59 10.19,15.38 10.19,19.17 0,3.79 -2,8.43 -2.31,12.12 -0.32,3.68 1.04,6.95 1.04,6.95 0,0 -3.04,1.26 -5.77,3.15 -2.73,1.9 -4.62,3.06 -8.82,2.85 -4.2,-0.21 -6.72,-2.11 -9.14,-3.37 -2.41,-1.27 -3.98,-1.48 -3.98,-1.48 0,0 4.83,-2.73 6.61,-7.26zm-40.43 -32.12c8.29,-7.58 14.07,-8.85 14.07,-8.85 -0.39,8.39 -1.9,15.06 -3.05,22.85 -1.36,9.27 -0.63,13.59 1.16,18.12 1.78,4.53 6.61,7.27 6.61,7.27 0,0 -1.57,0.21 -3.99,1.47 -2.41,1.27 -4.93,3.16 -9.13,3.37 -4.2,0.21 -6.09,-0.95 -8.82,-2.85 -2.73,-1.89 -5.78,-3.15 -5.78,-3.15 0,0 1.37,-3.27 1.05,-6.95 -0.31,-3.69 -2.31,-8.32 -2.31,-12.11 0,-3.8 1.89,-11.59 10.19,-19.17zm-29.91 46.1c-2.38,1.98 -6.63,0.8 -9.9,-0.5 -3.26,-1.29 -6.72,-2.18 -6.72,-2.18 0,0 0.79,-0.79 1.68,-2.38 0.89,-1.59 0.89,-4.27 0.2,-8.74 -0.7,-4.46 -1.39,-9.22 -0.7,-11.8 0.7,-2.59 0.6,-5.36 5.25,-10.63 4.65,-5.26 12.47,-8.92 12.47,-8.92 0,0 -1,1.68 -2.87,5.25 -1.88,3.58 -6.34,13.3 -5.64,22.83 0.69,9.53 6.23,11.11 7.71,12.4 1.49,1.29 0.9,2.68 -1.48,4.67zm110.51 79.66c-8.17,4.51 -12.83,3.51 -12.5,6.85 0.34,3.35 7.66,5.85 7.66,5.85 0,0 -7.5,8.03 -13.33,11.71 -5.83,3.68 -12.68,6.02 -12.68,6.02 0,0 -2.32,0.33 -0.99,4.01 1.33,3.68 3.67,6.18 5.5,7.19 1.83,1 2.84,1.34 2.84,1.34 0,0 -10.17,10.86 -14.67,14.37 -4.51,3.51 -7.01,4.68 -10.67,6.19 -3.67,1.5 -1.83,7.52 -1,10.2 0.83,2.67 4,6.35 5.84,6.85 1.82,0.51 2.49,1.84 0.16,5.52 -1.74,2.74 -7.56,10.04 -10.34,14.07l-0.17 0.09c-2.75,-4 -8.65,-11.39 -10.4,-14.16 -2.34,-3.68 -1.67,-5.01 0.16,-5.52 1.84,-0.5 5.01,-4.18 5.84,-6.85 0.83,-2.68 2.67,-8.7 -1.01,-10.2 -3.66,-1.51 -6.16,-2.68 -10.66,-6.19 -4.5,-3.51 -14.67,-14.37 -14.67,-14.37 0,0 1,-0.34 2.83,-1.34 1.84,-1.01 4.17,-3.51 5.51,-7.19 1.33,-3.68 -1.01,-4.01 -1.01,-4.01 0,0 -6.83,-2.34 -12.66,-6.02 -5.83,-3.68 -13.34,-11.71 -13.34,-11.71 0,0 7.34,-2.5 7.67,-5.85 0.33,-3.34 -4.34,-2.34 -12.5,-6.85 -8.17,-4.52 -10.84,-10.2 -10.84,-10.2 0,0 9.5,-3.18 14.17,-12.71 1.65,-3.37 2.05,-6.45 1.88,-9.03l0.36 0.12c15.17,4.94 32.9,6.92 48.76,6.92 15.82,0 33.55,-1.99 48.69,-6.92l0.36 -0.12c-0.18,2.58 0.22,5.66 1.87,9.03 4.67,9.53 14.17,12.71 14.17,12.71 0,0 -2.66,5.69 -10.83,10.2z"/>
 </g>
</svg>
